<?xml version="1.0" encoding="UTF-8"?>
<svg id="Layer_1" xmlns="http://www.w3.org/2000/svg" version="1.1" viewBox="0 0 979.3 432">
  <!-- Generator: Adobe Illustrator 29.5.1, SVG Export Plug-In . SVG Version: 2.1.0 Build 141)  -->
  <defs>
    <style>
      .st0 {
        fill: #031368;
      }
    </style>
  </defs>
  <g>
    <path class="st0" d="M434.9,207.2c0-6.2,1.9-11.2,5.1-14.2h-13.5v-10h63.3v10h-30.6c-6.8.1-11.4,5.1-11.4,12s4.7,11.1,10.9,11.1,11.2-3.8,11.2-10.7-2.2-7.3-3.9-8.7h6.9c5.6,0,10.4,3,10.4,10.8s-9.8,19.1-24.4,19.1-24-9.4-24-19.6h0ZM439.5,170.2v-4.2c2.4.7,5.7.9,8.1.9h28.6v10.5h-27.4c-6.4-.1-9.2-2.2-9.2-7.2h0ZM448.9,232.8h14.3v18.2h50.4v11.1h-64.7v-29.4ZM497,165.9h13.7v30h15.9v11h-15.9v29.8h-13.7v-70.9Z"/>
    <path class="st0" d="M540,222l-3.1-4.6c15.8-6.6,24.7-18.9,24.7-32.3v-3.7h-22v-10.8h58.1v10.8h-22.3v3.7c0,2-.2,4.2-.6,6.3,3.3,9.2,12.8,16.3,25.1,21.5l-7,10.8c-8.8-3.4-18.2-10.6-23.7-18-4.4,7.5-10.8,13.9-17.8,17.4-4.5,2.2-9.2,1.9-11.5-1.1h0ZM556.2,229.5h14.3v21.5h53v11.1h-67.3v-32.6h0ZM607.9,166.2h13.7v70.8h-13.7v-70.9h0Z"/>
    <path class="st0" d="M644.6,213.8l-2.6-4.5c15-2.4,25.6-6.8,32-14.5-6.3,1.8-14.6,2.5-23.4,2.5h-6.6v-10.6h6.6c13,0,21.7-.8,29-2.9.5-1.5.8-3,1-4.7h-33.8v-10.5h47.3v2.8c0,24.6-16.1,40.8-38.6,45.9-5.1,1.2-9,0-11-3.5h0ZM659.1,237.1h48.7v-6.2h-48.7v-10.4h63v26.9h-48.7v6.3h52.2v10.5h-66.5v-27.1h0ZM708.4,166.2h13.7v20.5h15.9v11h-15.9v16.4h-13.7v-47.9Z"/>
  </g>
  <path class="st0" d="M348.8,180c-17.2.3-27.7,12.1-28.6,30.9v.2h-21.5s-.4-22.6-.4-22.6c-3.1.3-12.4,5.5-12.2,15.7v10.3c.5,21.4-7.8,27.6-17.8,27.8-4.2,0-20.4-4.1-20.2-27.8,0-27.1,27.1-56.7,61.8-56.7,23.3,0,40.8,5.2,58.3,22.8l.6-.4c-11.7-21.6-33.9-36.3-59.3-36.3-37.7,0-67.6,32-68.2,70.9h0c-.4,19.5,13.3,37.4,29,37.1,17.2-.3,27.7-12.1,28.6-30.9v-.2h21.5s.4,22.6.4,22.6c3.1-.3,12.4-5.5,12.2-15.7v-10.3c-.5-21.4,7.8-27.6,17.8-27.8,4.2,0,20.4,4.1,20.2,27.8,0,27.1-27.1,56.7-61.8,56.7-23.3,0-40.8-5.2-58.3-22.8l-.6.4c11.7,21.6,33.9,36.3,59.3,36.3,37.7,0,67.6-32,68.2-70.9h0c.4-19.5-13.3-37.4-29-37.1h0Z"/>
</svg>