<?xml version="1.0" encoding="utf-8"?>
<!-- Generator: Adobe Illustrator 16.0.0, SVG Export Plug-In . SVG Version: 6.00 Build 0)  -->
<!DOCTYPE svg PUBLIC "-//W3C//DTD SVG 1.1//EN" "http://www.w3.org/Graphics/SVG/1.1/DTD/svg11.dtd">
<svg version="1.1" id="Layer_1" xmlns="http://www.w3.org/2000/svg" xmlns:xlink="http://www.w3.org/1999/xlink" x="0px" y="0px"
	 width="679.333px" height="71.712px" viewBox="0 0 679.333 71.712" enable-background="new 0 0 679.333 71.712"
	 xml:space="preserve">
<g>
	<g>
		<path fill="#203A70" d="M283.416,15.619h-4.886v-4.811c0-0.85-0.688-1.537-1.537-1.537s-1.537,0.688-1.537,1.537v4.811h-17.639
			v-4.811c0-0.85-0.688-1.537-1.537-1.537c-0.849,0-1.537,0.688-1.537,1.537v4.811h-4.891c-2.856,0.003-5.179,2.592-5.179,5.769
			v32.398c0,3.178,2.324,5.766,5.181,5.766h33.563c2.856,0,5.183-2.586,5.187-5.766V21.388
			C288.599,18.211,286.273,15.622,283.416,15.619z M285.301,53.784c-0.005,1.226-0.853,2.229-1.885,2.235h-33.558
			c-1.034-0.007-1.878-1.009-1.88-2.233V28.99h37.324V53.784z"/>
		<g>
			<g>
				<rect x="260.695" y="32.925" fill="#203A70" width="4.496" height="4.497"/>
				<rect x="268.082" y="32.925" fill="#203A70" width="4.496" height="4.497"/>
				<rect x="275.468" y="32.925" fill="#203A70" width="4.496" height="4.497"/>
			</g>
			<g>
				<rect x="253.308" y="47.696" fill="#203A70" width="4.5" height="4.496"/>
				<rect x="260.695" y="47.696" fill="#203A70" width="4.496" height="4.496"/>
				<rect x="268.082" y="47.696" fill="#203A70" width="4.496" height="4.496"/>
			</g>
			<g>
				<rect x="253.308" y="40.313" fill="#203A70" width="4.5" height="4.496"/>
				<rect x="260.695" y="40.313" fill="#203A70" width="4.496" height="4.496"/>
				<rect x="268.082" y="40.313" fill="#203A70" width="4.496" height="4.496"/>
				<rect x="275.468" y="40.313" fill="#203A70" width="4.496" height="4.496"/>
			</g>
		</g>
	</g>
	<path fill="#203A70" d="M336.107,44.115c-5.385,0-9.719-4.359-9.719-9.718c0-5.361,4.334-9.721,9.719-9.721
		c5.379,0,9.717,4.359,9.717,9.721C345.824,39.756,341.486,44.115,336.107,44.115z M355.471,34.41c0-2.553,1.594-4.732,3.851-5.602
		c-0.594-2.494-1.576-4.827-2.875-6.94c-0.78,0.337-1.606,0.521-2.446,0.521c-1.528,0-3.061-0.582-4.238-1.747
		c-1.81-1.811-2.211-4.472-1.239-6.686c-2.102-1.299-4.445-2.279-6.927-2.881c-0.86,2.251-3.048,3.857-5.6,3.857
		s-4.739-1.606-5.597-3.857c-2.495,0.602-4.827,1.582-6.94,2.881c0.985,2.201,0.57,4.875-1.24,6.686
		c-1.167,1.165-2.71,1.747-4.244,1.747c-0.834,0-1.663-0.165-2.44-0.521c-1.288,2.125-2.269,4.458-2.869,6.952
		c2.25,0.857,3.851,3.037,3.851,5.598c0,2.552-1.588,4.73-3.84,5.6c0.601,2.494,1.583,4.827,2.882,6.943
		c0.778-0.339,1.606-0.516,2.435-0.516c1.527,0,3.058,0.588,4.238,1.753c1.798,1.798,2.212,4.472,1.239,6.675
		c2.113,1.301,4.458,2.281,6.94,2.875c0.858-2.245,3.034-3.838,5.585-3.838s4.727,1.593,5.587,3.838
		c2.494-0.594,4.823-1.574,6.939-2.875c-0.972-2.203-0.559-4.865,1.239-6.675c1.165-1.165,2.699-1.753,4.238-1.753
		c0.829,0,1.666,0.177,2.431,0.516c1.303-2.116,2.284-4.461,2.879-6.943C357.077,39.148,355.471,36.97,355.471,34.41z"/>
	<g>
		<g>
			<path fill="#EFEDED" d="M541.708,12.097c0.729,0,1.459,0.036,2.188,0.105c0.724,0.072,1.449,0.181,2.161,0.32
				c0.716,0.144,1.429,0.321,2.128,0.531c0.699,0.213,1.387,0.459,2.062,0.742c0.674,0.275,1.337,0.591,1.976,0.936
				c0.648,0.342,1.272,0.721,1.886,1.122c0.603,0.405,1.19,0.841,1.753,1.307c0.566,0.462,1.11,0.954,1.626,1.468
				c0.517,0.519,1.005,1.059,1.468,1.627c0.466,0.561,0.9,1.148,1.305,1.758c0.409,0.607,0.784,1.231,1.129,1.879
				c0.346,0.646,0.654,1.303,0.935,1.98c0.282,0.674,0.524,1.357,0.738,2.06c0.213,0.696,0.393,1.408,0.53,2.125
				c0.142,0.714,0.252,1.438,0.321,2.167c0.075,0.725,0.111,1.453,0.111,2.186c0,0.73-0.036,1.458-0.111,2.188
				c-0.069,0.724-0.18,1.45-0.321,2.164c-0.138,0.718-0.317,1.426-0.53,2.128c-0.214,0.698-0.456,1.388-0.738,2.06
				c-0.28,0.673-0.589,1.335-0.935,1.98c-0.345,0.643-0.72,1.267-1.129,1.879c-0.404,0.606-0.839,1.191-1.305,1.76
				c-0.463,0.561-0.951,1.104-1.468,1.62c-0.516,0.52-1.06,1.007-1.626,1.468c-0.563,0.466-1.15,0.901-1.753,1.307
				c-0.613,0.407-1.237,0.782-1.886,1.128c-0.639,0.345-1.302,0.653-1.976,0.933c-0.675,0.283-1.362,0.529-2.062,0.738
				c-0.699,0.214-1.412,0.394-2.128,0.531c-0.712,0.143-1.438,0.254-2.161,0.324c-0.729,0.072-1.459,0.109-2.188,0.109
				c-0.732,0-1.462-0.037-2.188-0.109c-0.726-0.07-1.45-0.182-2.166-0.324c-0.719-0.138-1.427-0.317-2.123-0.531
				c-0.703-0.209-1.387-0.455-2.065-0.738c-0.673-0.279-1.335-0.588-1.978-0.933c-0.645-0.346-1.27-0.721-1.876-1.128
				c-0.612-0.405-1.198-0.841-1.759-1.307c-0.567-0.461-1.107-0.948-1.627-1.468c-0.513-0.517-1.006-1.06-1.467-1.62
				c-0.466-0.568-0.901-1.153-1.307-1.76c-0.408-0.612-0.78-1.236-1.126-1.879c-0.342-0.646-0.657-1.308-0.936-1.98
				c-0.279-0.672-0.526-1.361-0.738-2.06c-0.21-0.702-0.388-1.41-0.531-2.128c-0.142-0.714-0.25-1.44-0.322-2.164
				c-0.071-0.729-0.104-1.457-0.104-2.188c0-0.732,0.032-1.461,0.104-2.186c0.072-0.729,0.181-1.453,0.322-2.167
				c0.144-0.717,0.321-1.429,0.531-2.125c0.212-0.702,0.459-1.386,0.738-2.06c0.278-0.678,0.594-1.335,0.936-1.98
				c0.346-0.647,0.718-1.271,1.126-1.879c0.405-0.609,0.841-1.197,1.307-1.758c0.461-0.568,0.954-1.108,1.467-1.627
				c0.52-0.514,1.06-1.006,1.627-1.468c0.561-0.466,1.146-0.901,1.759-1.307c0.606-0.401,1.231-0.78,1.876-1.122
				c0.643-0.345,1.305-0.66,1.978-0.936c0.679-0.283,1.362-0.529,2.065-0.742c0.696-0.21,1.404-0.388,2.123-0.531
				c0.716-0.14,1.44-0.248,2.166-0.32C540.247,12.133,540.976,12.097,541.708,12.097z"/>
		</g>
		<path fill="#AEADAD" d="M548.42,32.324h-4.607v-4.61c0-0.849-0.688-1.537-1.536-1.537s-1.537,0.688-1.537,1.537v4.61h-4.61
			c-0.849,0-1.537,0.687-1.537,1.537c0,0.85,0.688,1.535,1.537,1.535h4.61v4.607c0,0.851,0.688,1.537,1.537,1.537
			s1.536-0.687,1.536-1.537v-4.607h4.607c0.849,0,1.537-0.686,1.537-1.535C549.958,33.01,549.269,32.324,548.42,32.324z"/>
	</g>
	<path fill="#AEADAD" d="M427.617,51.561l-7.771-7.77c2.598-3.088,4.17-7.065,4.17-11.406c0-9.785-7.962-17.746-17.748-17.746
		s-17.747,7.961-17.747,17.746c0,9.787,7.961,17.75,17.747,17.75c4.341,0,8.318-1.573,11.406-4.17l7.771,7.769
		c0.3,0.3,0.693,0.45,1.086,0.45c0.393,0,0.786-0.15,1.086-0.45C428.218,53.133,428.218,52.161,427.617,51.561z M391.593,32.385
		c0-8.091,6.583-14.673,14.674-14.673c8.092,0,14.674,6.582,14.674,14.673c0,4.025-1.631,7.677-4.265,10.332
		c-0.015,0.014-0.034,0.018-0.048,0.032c-0.014,0.013-0.018,0.031-0.031,0.048c-2.654,2.633-6.305,4.264-10.33,4.264
		C398.177,47.061,391.593,40.477,391.593,32.385z"/>
	<path fill="#AEADAD" d="M473.276,34.407l14.575-14.562c1.077-1.083,1.077-2.824,0-3.893c-1.078-1.077-2.818-1.06-3.896,0
		l-16.511,16.502c-1.047,1.045-1.072,2.721-0.084,3.798l16.583,16.615c0.537,0.541,1.251,0.804,1.947,0.804
		c0.703,0,1.414-0.263,1.948-0.804c1.081-1.077,1.081-2.822,0-3.888L473.276,34.407z"/>
	<path fill="#203A70" d="M190.254,49.973c-8.6,0-15.558-6.959-15.558-15.56c0-8.604,6.958-15.563,15.558-15.563
		c8.601,0,15.562,6.958,15.562,15.563C205.816,43.014,198.855,49.973,190.254,49.973z M210.126,32.187
		c-1.022-9.266-8.38-16.622-17.648-17.646V9.96h-4.444v4.58c-9.27,1.024-16.629,8.381-17.65,17.646h-4.579v4.447h4.579
		c1.021,9.27,8.38,16.626,17.65,17.649v4.58h4.444v-4.58c9.268-1.023,16.626-8.38,17.648-17.649h4.581v-4.447H210.126z
		 M190.254,25.523c-4.91,0-8.892,3.974-8.892,8.89c0,4.911,3.981,8.887,8.892,8.887c4.912,0,8.891-3.976,8.891-8.887
		C199.146,29.497,195.167,25.523,190.254,25.523z"/>
	<path fill="#203A70" d="M33.277,19.787h5.85v17.551h-5.85V19.787z M33.277,43.188h5.85v5.851h-5.85V43.188z M36.201,11.009
		c12.922,0,23.402,10.479,23.402,23.402s-10.48,23.402-23.402,23.402c-12.924,0-23.401-10.479-23.401-23.402
		S23.277,11.009,36.201,11.009L36.201,11.009z M36.201,15.397c-5.079,0-9.853,1.979-13.445,5.57
		c-3.589,3.591-5.567,8.362-5.567,13.444c0,5.078,1.978,9.854,5.567,13.446c3.593,3.59,8.367,5.567,13.445,5.567
		s9.855-1.978,13.445-5.567c3.59-3.593,5.568-8.368,5.568-13.446c0-5.082-1.978-9.854-5.568-13.444
		C46.057,17.375,41.28,15.397,36.201,15.397z"/>
	<path fill="#EC1E24" d="M646.237,17.426l17.389,34.649h-34.773L646.237,17.426z M646.237,13.668c-0.89,0-1.786,0.604-2.463,1.81
		l-17.71,35.292c-1.355,2.41-0.202,4.385,2.564,4.385h35.22c2.766,0,3.921-1.975,2.566-4.385l-17.71-35.292
		C648.026,14.272,647.134,13.668,646.237,13.668z M648.829,47.375c0,1.438-1.158,2.593-2.592,2.593c-1.43,0-2.592-1.155-2.592-2.593
		c0-1.432,1.162-2.591,2.592-2.591C647.67,44.785,648.829,45.944,648.829,47.375z M646.237,42.192c-1.43,0-2.592-1.165-2.592-2.594
		v-7.78c0-1.431,1.162-2.593,2.592-2.593c1.434,0,2.592,1.162,2.592,2.593v7.78C648.829,41.027,647.67,42.192,646.237,42.192z"/>
	<g>
		<g>
			<path fill="#203A70" d="M112.766,56.774c-7.456,0-14.671-3.74-18.854-10.188c-5.355-8.253-4.63-19.241,1.761-26.722
				c6.396-7.482,17.138-9.905,26.123-5.902c1.331,0.593,1.93,2.153,1.336,3.482c-0.593,1.334-2.152,1.934-3.483,1.336
				c-6.869-3.06-15.081-1.206-19.964,4.511c-4.888,5.719-5.44,14.116-1.346,20.425c4.091,6.307,11.98,9.227,19.199,7.09
				c7.213-2.131,12.251-8.871,12.255-16.39v-1.816c0-1.457,1.182-2.636,2.638-2.636c1.456,0,2.637,1.179,2.637,2.636v1.818
				c-0.005,9.839-6.599,18.657-16.032,21.448C116.968,56.48,114.858,56.774,112.766,56.774z"/>
		</g>
		<g>
			<path fill="#203A70" d="M112.689,41.025c-0.701,0-1.371-0.279-1.865-0.774l-5.924-5.922c-1.032-1.032-1.032-2.702,0-3.731
				c1.03-1.029,2.7-1.029,3.729,0l4.056,4.059l17.878-17.897c1.03-1.032,2.701-1.029,3.732-0.003c1.03,1.029,1.03,2.701,0,3.73
				l-19.742,19.765C114.061,40.746,113.388,41.025,112.689,41.025L112.689,41.025z"/>
		</g>
	</g>
</g>
</svg>
