<?xml version="1.0" encoding="utf-8"?>
<!-- Generator: Adobe Illustrator 16.0.0, SVG Export Plug-In . SVG Version: 6.00 Build 0)  -->
<!DOCTYPE svg PUBLIC "-//W3C//DTD SVG 1.1//EN" "http://www.w3.org/Graphics/SVG/1.1/DTD/svg11.dtd">
<svg version="1.1" id="레이어_1" xmlns="http://www.w3.org/2000/svg" xmlns:xlink="http://www.w3.org/1999/xlink" x="0px"
	 y="0px" width="287.998px" height="21.25px" viewBox="0 0 287.998 21.25" enable-background="new 0 0 287.998 21.25"
	 xml:space="preserve">
<g>
	<path fill="#DCDCDC" d="M278.707,10.626c0,4.676-3.791,8.467-8.469,8.467H17.76c-4.677,0-8.469-3.791-8.469-8.467l0,0
		c0-4.679,3.792-8.469,8.469-8.469h252.479C274.916,2.157,278.707,5.947,278.707,10.626L278.707,10.626z"/>
	<path fill="#203A70" d="M76.89,10.626c0,4.676-3.792,8.467-8.47,8.467H17.76c-4.679,0-8.469-3.791-8.469-8.467l0,0
		c0-4.679,3.79-8.469,8.469-8.469h50.66C73.098,2.157,76.89,5.947,76.89,10.626L76.89,10.626z"/>
</g>
</svg>
