<?xml version="1.0" encoding="utf-8"?>
<!-- Generator: Adobe Illustrator 16.0.0, SVG Export Plug-In . SVG Version: 6.00 Build 0)  -->
<!DOCTYPE svg PUBLIC "-//W3C//DTD SVG 1.1//EN" "http://www.w3.org/Graphics/SVG/1.1/DTD/svg11.dtd">
<svg version="1.1" id="Layer_1" xmlns="http://www.w3.org/2000/svg" xmlns:xlink="http://www.w3.org/1999/xlink" x="0px" y="0px"
	 width="447.116px" height="71.712px" viewBox="0 0 447.116 71.712" enable-background="new 0 0 447.116 71.712"
	 xml:space="preserve">
<g>
	<g>
		<defs>
			<rect id="SVGID_1_" x="377.479" y="11.848" width="48.685" height="48.688"/>
		</defs>
		<clipPath id="SVGID_2_">
			<use xlink:href="#SVGID_1_"  overflow="visible"/>
		</clipPath>
		<path clip-path="url(#SVGID_2_)" fill="#C6C3C4" d="M401.822,15.907c-11.157,0-20.287,9.127-20.287,20.284
			c0,11.159,9.13,20.286,20.287,20.286c11.156,0,20.286-9.127,20.286-20.286C422.108,25.034,412.978,15.907,401.822,15.907z
			 M397.763,46.336l-10.142-10.146l2.843-2.84l7.299,7.302l15.419-15.417l2.839,2.842L397.763,46.336z"/>
	</g>
	<g>
		<path fill="#C6C3C4" d="M175.832,30.252h3.932v14.836h-3.932V30.252z M175.688,26.577c0-1.17,0.955-2.047,2.106-2.047
			c1.174,0,2.134,0.877,2.134,2.047c0,1.176-0.96,2.063-2.134,2.063C176.643,28.639,175.688,27.752,175.688,26.577z"/>
		<path fill="#8C8C8C" d="M175.832,30.252h3.932v14.836h-3.932V30.252z M175.688,26.577c0-1.17,0.955-2.047,2.106-2.047
			c1.174,0,2.134,0.877,2.134,2.047c0,1.176-0.96,2.063-2.134,2.063C176.643,28.639,175.688,27.752,175.688,26.577z"/>
		<path fill="#C6C3C4" d="M177.807,13.793c-11.826,0-21.409,9.584-21.409,21.414c0,11.824,9.583,21.408,21.409,21.408
			c11.829,0,21.41-9.584,21.41-21.408C199.217,23.377,189.636,13.793,177.807,13.793z M177.807,16.674
			c4.953,0,9.605,1.93,13.104,5.43c3.497,3.498,5.424,8.148,5.424,13.104c0,4.948-1.927,9.601-5.424,13.103
			c-3.5,3.498-8.152,5.421-13.104,5.421c-4.949,0-9.602-1.923-13.102-5.421c-3.5-3.502-5.423-8.154-5.423-13.103
			c0-4.955,1.924-9.605,5.423-13.104C168.205,18.604,172.857,16.674,177.807,16.674"/>
		<path fill="#8C8C8C" d="M177.594,13.793c-11.826,0-21.407,9.584-21.407,21.414c0,11.824,9.581,21.408,21.407,21.408
			c11.829,0,21.412-9.584,21.412-21.408C199.006,23.377,189.422,13.793,177.594,13.793z M177.594,16.674
			c4.956,0,9.605,1.93,13.104,5.43c3.5,3.498,5.424,8.148,5.424,13.104c0,4.948-1.924,9.601-5.424,13.103
			c-3.5,3.498-8.149,5.421-13.104,5.421c-4.95,0-9.599-1.923-13.098-5.421c-3.5-3.502-5.427-8.154-5.427-13.103
			c0-4.955,1.927-9.605,5.427-13.104C167.995,18.604,172.644,16.674,177.594,16.674"/>
	</g>
	<g>
		<g>
			<path fill="#8C8C8C" d="M325.23,42.609c-4.083,0-7.404-3.32-7.404-7.401c0-4.084,3.321-7.406,7.404-7.406
				s7.405,3.322,7.405,7.406C332.635,39.289,329.313,42.609,325.23,42.609z M325.23,30.875c-2.387,0-4.331,1.943-4.331,4.332
				c0,2.385,1.944,4.327,4.331,4.327c2.388,0,4.331-1.942,4.331-4.327C329.561,32.819,327.618,30.875,325.23,30.875z"/>
		</g>
		<g>
			<path fill="#8C8C8C" d="M325.386,58.255c-3.004,0-5.448-2.444-5.448-5.446v-0.18c-0.016-0.66-0.452-1.27-1.108-1.511
				c-0.868-0.374-1.471-0.172-1.959,0.302l-0.059,0.066c-2.11,2.113-5.719,2.07-7.748,0.042c-1.029-1.03-1.597-2.398-1.597-3.854
				c0-1.438,0.582-2.844,1.6-3.856l0.114-0.114c0.473-0.486,0.606-1.217,0.325-1.848c-0.273-0.641-0.88-1.043-1.555-1.046h-0.324
				c-3.004,0-5.448-2.444-5.448-5.45c0-3.005,2.444-5.448,5.448-5.448h0.176c0.662-0.015,1.271-0.45,1.512-1.105
				c0.316-0.724,0.184-1.459-0.304-1.957l-0.089-0.088c-1.047-1.05-1.614-2.418-1.614-3.866c0-1.439,0.584-2.846,1.603-3.861
				c1.014-1.013,2.418-1.596,3.848-1.596c1.438,0,2.843,0.583,3.857,1.6l0.114,0.117c0.469,0.457,1.229,0.603,1.856,0.324
				c0.121-0.054,0.247-0.09,0.377-0.109c0.5-0.301,0.815-0.844,0.819-1.441v-0.326c0-3.006,2.444-5.45,5.447-5.45
				c3.004,0,5.448,2.444,5.448,5.45v0.174c0.002,0.668,0.406,1.276,1.025,1.542c0.673,0.297,1.393,0.147,1.877-0.328l0.108-0.108
				c2.032-2.032,5.675-2.032,7.707,0c1.029,1.029,1.597,2.4,1.597,3.857c0,1.45-0.565,2.818-1.595,3.853l-0.132,0.128
				c-0.46,0.474-0.595,1.206-0.314,1.837c0.054,0.122,0.092,0.251,0.113,0.382c0.303,0.5,0.848,0.815,1.447,0.82h0.317
				c3.006,0,5.452,2.443,5.452,5.449c0,3-2.446,5.443-5.452,5.443h-0.174c-0.666,0.002-1.272,0.406-1.541,1.027
				c-0.286,0.652-0.154,1.385,0.331,1.88l0.093,0.09c1.044,1.054,1.61,2.421,1.61,3.87c0,1.451-0.566,2.82-1.595,3.853
				c-2.033,2.032-5.681,2.03-7.71,0.003l-0.129-0.132c-0.446-0.435-1.215-0.589-1.837-0.314c-0.639,0.273-1.04,0.881-1.041,1.553
				v0.329C330.837,55.811,328.392,58.255,325.386,58.255z M318.059,47.867c0.665,0,1.311,0.135,1.92,0.401
				c1.76,0.648,2.983,2.357,3.032,4.322v0.219c0,1.309,1.065,2.372,2.375,2.372c1.312,0,2.377-1.063,2.377-2.372v-0.333
				c0.005-1.902,1.137-3.615,2.885-4.364c1.698-0.761,3.862-0.388,5.242,0.957l0.142,0.144c0.857,0.858,2.462,0.872,3.348-0.013
				c0.448-0.451,0.696-1.048,0.696-1.682c0-0.633-0.249-1.232-0.701-1.688l-0.1-0.097c-1.394-1.42-1.768-3.483-0.979-5.281
				c0.746-1.733,2.457-2.866,4.354-2.876h0.181c1.312,0,2.378-1.063,2.378-2.369c0-1.311-1.066-2.375-2.378-2.375H342.5
				c-1.907-0.014-3.617-1.146-4.365-2.887c-0.063-0.145-0.101-0.296-0.117-0.451c-0.621-1.713-0.217-3.623,1.074-4.948l0.145-0.141
				c0.435-0.438,0.683-1.034,0.683-1.667c0-0.637-0.248-1.236-0.696-1.684c-0.889-0.89-2.473-0.89-3.361,0l-0.117,0.116
				c-1.383,1.362-3.507,1.747-5.269,0.963c-1.729-0.739-2.862-2.452-2.871-4.351v-0.182c0-1.309-1.065-2.377-2.375-2.377
				c-1.309,0-2.374,1.068-2.374,2.377v0.334c-0.009,1.908-1.144,3.618-2.891,4.363c-0.143,0.061-0.293,0.101-0.445,0.116
				c-1.689,0.612-3.658,0.19-4.951-1.076l-0.129-0.129c-0.885-0.89-2.468-0.892-3.358,0c-0.446,0.444-0.699,1.057-0.699,1.685
				c0,0.63,0.249,1.229,0.701,1.682l0.101,0.1c1.396,1.428,1.768,3.492,0.979,5.281c-0.646,1.76-2.358,2.983-4.325,3.027h-0.21
				c-1.31,0-2.375,1.065-2.375,2.375c0,1.311,1.065,2.377,2.375,2.377h0.332c1.909,0.009,3.619,1.143,4.364,2.891
				c0.786,1.766,0.415,3.83-0.956,5.234l-0.131,0.131c-0.443,0.441-0.696,1.055-0.696,1.682c0,0.635,0.248,1.232,0.696,1.682
				c0.886,0.885,2.477,0.885,3.362,0l0.073-0.081C315.625,48.346,316.808,47.867,318.059,47.867z"/>
		</g>
	</g>
	<path fill="#8C8C8C" d="M40.162,13.622L20.953,28.559v22.354c0,3.014,2.451,5.467,5.463,5.467h6.318h3.074h8.707h3.074h6.317
		c3.014,0,5.466-2.453,5.466-5.467V28.559L40.162,13.622z M35.808,53.305V38.28h8.707v15.025H35.808z M56.298,50.913
		c0,1.319-1.073,2.393-2.393,2.393h-6.317V35.208H32.734v18.098h-6.318c-1.318,0-2.389-1.073-2.389-2.393v-20.85l16.136-12.549
		l16.136,12.549V50.913z"/>
	<g>
		<path fill="#8C8C8C" d="M268.5,13.307h-34.067c-2.683,0-4.865,2.45-4.865,5.46V51.65c0,3.007,2.183,5.455,4.865,5.455H268.5
			c2.68,0,4.862-2.448,4.865-5.455V18.767C273.362,15.757,271.179,13.307,268.5,13.307z M270.802,25.413v26.234
			c-0.007,1.462-1.04,2.656-2.303,2.661h-34.065c-1.27-0.005-2.303-1.199-2.307-2.658V25.413H270.802z M234.433,16.104h34.065
			c1.264,0.005,2.297,1.198,2.304,2.663v3.848h-38.675v-3.848C232.131,17.302,233.165,16.109,234.433,16.104z"/>
		<path fill="#8C8C8C" d="M242.805,39.753h0.002c2.769,0,5.021-2.27,5.021-5.06c0-2.789-2.253-5.059-5.021-5.059
			c-2.77,0-5.021,2.27-5.021,5.06C237.792,37.473,240.043,39.745,242.805,39.753z M242.807,32.222c1.354,0,2.455,1.108,2.455,2.474
			c0,1.37-1.102,2.486-2.455,2.486c-1.355,0-2.458-1.116-2.458-2.486C240.349,33.331,241.452,32.222,242.807,32.222z"/>
		<path fill="#8C8C8C" d="M236.584,49.808h12.44c0.706,0,1.279-0.577,1.279-1.285c0-2.147-0.775-4.128-2.182-5.576
			c-1.38-1.422-3.297-2.239-5.262-2.239h-0.109c-1.97,0-3.888,0.817-5.26,2.239c-1.411,1.45-2.188,3.433-2.188,5.58
			C235.307,49.234,235.882,49.808,236.584,49.808z M238.001,47.237c0.203-0.939,0.665-1.808,1.327-2.486
			c0.902-0.93,2.171-1.465,3.479-1.465c1.32,0,2.555,0.521,3.478,1.463c0.671,0.698,1.123,1.551,1.324,2.488H238.001z"/>
		<path fill="#8C8C8C" d="M254.951,43.26h11.343c0.492,0,0.897-0.404,0.897-0.904c0-0.499-0.405-0.906-0.897-0.906h-11.343
			c-0.492,0-0.895,0.407-0.895,0.906C254.056,42.856,254.458,43.26,254.951,43.26z"/>
		<path fill="#8C8C8C" d="M254.951,48.523h11.343c0.492,0,0.897-0.404,0.897-0.903c0-0.503-0.405-0.906-0.897-0.906h-11.343
			c-0.492,0-0.895,0.403-0.895,0.906C254.056,48.119,254.458,48.523,254.951,48.523z"/>
		<path fill="#8C8C8C" d="M254.951,32.739h11.343c0.492,0,0.897-0.402,0.897-0.9c0-0.508-0.405-0.906-0.897-0.906h-11.343
			c-0.492,0-0.895,0.398-0.895,0.906C254.056,32.336,254.458,32.739,254.951,32.739z"/>
		<path fill="#8C8C8C" d="M254.951,38h11.343c0.492,0,0.897-0.405,0.897-0.903c0-0.501-0.405-0.906-0.897-0.906h-11.343
			c-0.492,0-0.895,0.405-0.895,0.906C254.056,37.595,254.458,38,254.951,38z"/>
	</g>
	<g>
		<path fill="none" d="M117.846,19.866H96.062c-2.509,0-4.547,1.959-4.547,4.38v25.182c0,2.419,2.038,4.382,4.547,4.382h21.785
			c2.512,0,4.547-1.963,4.547-4.382V24.246C122.394,21.825,120.358,19.866,117.846,19.866z M117.162,47.999H96.86
			c-0.839,0-1.52-0.679-1.52-1.518c0-0.84,0.681-1.52,1.52-1.52h20.302c0.837,0,1.519,0.68,1.519,1.52
			C118.681,47.32,118,47.999,117.162,47.999z M117.162,41.893H96.86c-0.839,0-1.52-0.682-1.52-1.519c0-0.84,0.681-1.52,1.52-1.52
			h20.302c0.837,0,1.519,0.68,1.519,1.52C118.681,41.211,118,41.893,117.162,41.893z M117.162,35.786H96.86
			c-0.839,0-1.52-0.679-1.52-1.516c0-0.841,0.681-1.521,1.52-1.521h20.302c0.837,0,1.519,0.681,1.519,1.521
			C118.681,35.107,118,35.786,117.162,35.786z M117.162,29.681H96.86c-0.839,0-1.52-0.683-1.52-1.519c0-0.842,0.681-1.52,1.52-1.52
			h20.302c0.837,0,1.519,0.678,1.519,1.52C118.681,28.999,118,29.681,117.162,29.681z"/>
		<path fill="#8C8C8C" d="M117.162,26.643H96.86c-0.839,0-1.52,0.678-1.52,1.52c0,0.836,0.681,1.519,1.52,1.519h20.302
			c0.837,0,1.519-0.683,1.519-1.519C118.681,27.321,118,26.643,117.162,26.643z"/>
		<path fill="#8C8C8C" d="M117.162,32.749H96.86c-0.839,0-1.52,0.681-1.52,1.521c0,0.837,0.681,1.516,1.52,1.516h20.302
			c0.837,0,1.519-0.679,1.519-1.516C118.681,33.429,118,32.749,117.162,32.749z"/>
		<path fill="#8C8C8C" d="M117.162,38.855H96.86c-0.839,0-1.52,0.68-1.52,1.52c0,0.837,0.681,1.519,1.52,1.519h20.302
			c0.837,0,1.519-0.682,1.519-1.519C118.681,39.535,118,38.855,117.162,38.855z"/>
		<path fill="#8C8C8C" d="M117.162,44.961H96.86c-0.839,0-1.52,0.68-1.52,1.52c0,0.839,0.681,1.518,1.52,1.518h20.302
			c0.837,0,1.519-0.679,1.519-1.518C118.681,45.641,118,44.961,117.162,44.961z"/>
		<path fill="#8C8C8C" d="M120.533,16.794h-9.44c-0.557,1.731-2.165,2.993-4.081,2.993c-1.917,0-3.521-1.262-4.079-2.993H93.49
			c-2.708,0-4.92,2.009-4.92,4.464V52.47c0,2.453,2.212,4.46,4.92,4.46h27.043c2.707,0,4.919-2.007,4.919-4.46V21.258
			C125.452,18.803,123.24,16.794,120.533,16.794z M122.394,49.427c0,2.419-2.035,4.382-4.547,4.382H96.062
			c-2.509,0-4.547-1.963-4.547-4.382V24.246c0-2.421,2.038-4.38,4.547-4.38h21.785c2.512,0,4.547,1.959,4.547,4.38V49.427z"/>
		<path fill="#8C8C8C" d="M105.924,16.345c-0.3-0.301-0.45-0.66-0.45-1.087c0-0.423,0.15-0.786,0.45-1.086
			c0.301-0.301,0.661-0.451,1.087-0.451c0.423,0,0.786,0.15,1.086,0.451c0.3,0.3,0.45,0.663,0.45,1.086
			c0,0.427-0.149,0.786-0.45,1.087c-0.3,0.3-0.663,0.449-1.086,0.449h4.081c0.134-0.415,0.226-0.851,0.226-1.311
			c0-2.377-1.93-4.308-4.307-4.308c-2.378,0-4.304,1.931-4.304,4.308c0,0.46,0.092,0.896,0.225,1.311h4.079
			C106.585,16.794,106.225,16.645,105.924,16.345z"/>
		<path fill="#8C8C8C" d="M107.011,19.788c1.917,0,3.524-1.262,4.081-2.993h-4.081h-4.079
			C103.49,18.526,105.094,19.788,107.011,19.788z"/>
		<path fill="#FFFFFF" d="M108.547,15.258c0-0.423-0.149-0.786-0.45-1.086c-0.3-0.301-0.663-0.451-1.086-0.451
			c-0.426,0-0.786,0.15-1.087,0.451c-0.3,0.3-0.45,0.663-0.45,1.086c0,0.427,0.15,0.786,0.45,1.087
			c0.301,0.3,0.661,0.449,1.087,0.449c0.423,0,0.786-0.149,1.086-0.449C108.398,16.044,108.547,15.685,108.547,15.258z"/>
	</g>
</g>
</svg>
