<?xml version="1.0" encoding="utf-8"?>
<!-- Generator: Adobe Illustrator 16.0.0, SVG Export Plug-In . SVG Version: 6.00 Build 0)  -->
<!DOCTYPE svg PUBLIC "-//W3C//DTD SVG 1.1//EN" "http://www.w3.org/Graphics/SVG/1.1/DTD/svg11.dtd">
<svg version="1.1" id="Layer_1" xmlns="http://www.w3.org/2000/svg" xmlns:xlink="http://www.w3.org/1999/xlink" x="0px" y="0px"
	 width="447.116px" height="71.712px" viewBox="0 0 447.116 71.712" enable-background="new 0 0 447.116 71.712"
	 xml:space="preserve">
<g>
	<defs>
		<rect id="SVGID_1_" x="377.295" y="11.513" width="48.687" height="48.687"/>
	</defs>
	<clipPath id="SVGID_2_">
		<use xlink:href="#SVGID_1_"  overflow="visible"/>
	</clipPath>
	<path clip-path="url(#SVGID_2_)" fill="#203A70" d="M401.637,15.57c-11.157,0-20.284,9.13-20.284,20.287
		c0,11.156,9.127,20.288,20.284,20.288c11.156,0,20.286-9.132,20.286-20.288C421.923,24.7,412.793,15.57,401.637,15.57z
		 M397.582,45.999l-10.145-10.142l2.84-2.842l7.305,7.308l15.416-15.421l2.842,2.839L397.582,45.999z"/>
</g>
<path fill="#203A70" d="M39.979,14.009l-18.845,14.66v22.47c0,2.639,2.146,4.786,4.783,4.786H54.04c2.64,0,4.788-2.147,4.788-4.786
	v-22.47L39.979,14.009z"/>
<g>
	<polygon fill="#FFFFFF" points="47.542,56.729 44.468,56.729 44.468,38.181 35.49,38.181 35.49,56.729 32.417,56.729 
		32.417,35.106 47.542,35.106 	"/>
</g>
<path fill="#203A70" d="M91.003,54.229V22.575c0-0.396,0.141-0.735,0.42-1.017c0.282-0.279,0.622-0.421,1.018-0.421h28.775
	c0.395,0,0.735,0.142,1.017,0.421c0.283,0.281,0.42,0.62,0.42,1.017v31.653c0,0.397-0.138,0.736-0.42,1.019
	c-0.282,0.279-0.622,0.42-1.017,0.42H92.44c-0.396,0-0.735-0.141-1.018-0.42C91.144,54.965,91.003,54.626,91.003,54.229z"/>
<path fill="#FFFFFF" d="M117.755,30.338c0,0.787-0.639,1.423-1.423,1.423H97.327c-0.786,0-1.426-0.636-1.426-1.423
	c0-0.784,0.64-1.421,1.426-1.421h19.005C117.116,28.917,117.755,29.554,117.755,30.338z"/>
<path fill="#FFFFFF" d="M117.755,36.059c0,0.783-0.639,1.418-1.423,1.418H97.327c-0.786,0-1.426-0.635-1.426-1.418
	c0-0.786,0.64-1.427,1.426-1.427h19.005C117.116,34.632,117.755,35.272,117.755,36.059z"/>
<path fill="#FFFFFF" d="M117.755,41.773c0,0.787-0.639,1.423-1.423,1.423H97.327c-0.786,0-1.426-0.636-1.426-1.423
	c0-0.786,0.64-1.423,1.426-1.423h19.005C117.116,40.351,117.755,40.987,117.755,41.773z"/>
<path fill="#203A70" d="M121.231,50.249c0,2.267-1.906,4.104-4.26,4.104H96.576c-2.346,0-4.255-1.837-4.255-4.104V26.672
	c0-2.263,1.909-4.1,4.255-4.1h20.396c2.354,0,4.26,1.837,4.26,4.1V50.249z M119.486,19.697H94.169c-2.534,0-4.604,1.879-4.604,4.178
	v29.223c0,2.297,2.071,4.178,4.604,4.178h25.317c2.537,0,4.607-1.881,4.607-4.178V23.875
	C124.094,21.576,122.023,19.697,119.486,19.697z"/>
<circle fill="#203A70" cx="106.83" cy="18.469" r="4.031"/>
<g>
	<path fill="#C6C3C4" d="M175.533,30.881h3.953v14.906h-3.953V30.881z M175.389,27.189c0-1.18,0.96-2.06,2.119-2.06
		c1.179,0,2.143,0.88,2.143,2.06c0,1.179-0.964,2.071-2.143,2.071C176.35,29.261,175.389,28.368,175.389,27.189z"/>
	<path fill="#203A70" d="M177.52,14.343c-11.886,0-21.515,9.629-21.515,21.515c0,11.884,9.629,21.515,21.515,21.515
		s21.515-9.631,21.515-21.515C199.035,23.972,189.406,14.343,177.52,14.343z M177.52,17.236c4.977,0,9.65,1.939,13.167,5.456
		c3.515,3.516,5.448,8.188,5.448,13.165c0,4.976-1.933,9.649-5.448,13.167c-3.518,3.515-8.191,5.448-13.167,5.448
		c-4.976,0-9.649-1.934-13.167-5.448c-3.518-3.518-5.448-8.191-5.448-13.167c0-4.977,1.93-9.649,5.448-13.165
		C167.871,19.176,172.544,17.236,177.52,17.236"/>
	<path fill="#203A70" d="M177.412,15.813c1.317,0,2.626,0.129,3.917,0.385c1.294,0.258,2.548,0.639,3.768,1.143
		c1.215,0.509,2.377,1.122,3.469,1.854c1.099,0.733,2.113,1.564,3.041,2.498c0.934,0.931,1.768,1.944,2.5,3.04
		c0.732,1.099,1.348,2.255,1.855,3.474c0.503,1.215,0.885,2.472,1.14,3.768c0.258,1.289,0.387,2.596,0.387,3.916
		c0,1.313-0.129,2.622-0.387,3.913c-0.255,1.294-0.637,2.549-1.14,3.768c-0.507,1.219-1.123,2.374-1.855,3.472
		c-0.732,1.095-1.567,2.108-2.5,3.041c-0.927,0.932-1.942,1.763-3.041,2.495c-1.092,0.734-2.254,1.353-3.469,1.857
		c-1.219,0.5-2.474,0.886-3.768,1.141c-1.29,0.258-2.6,0.387-3.917,0.387c-1.317,0-2.62-0.129-3.917-0.387
		c-1.293-0.255-2.548-0.641-3.764-1.141c-1.218-0.505-2.374-1.123-3.472-1.857c-1.093-0.732-2.11-1.563-3.041-2.495
		c-0.934-0.933-1.765-1.946-2.494-3.041c-0.735-1.098-1.354-2.253-1.855-3.472c-0.51-1.219-0.889-2.474-1.145-3.768
		c-0.257-1.291-0.386-2.6-0.386-3.913c0-1.32,0.129-2.627,0.386-3.916c0.256-1.296,0.634-2.553,1.145-3.768
		c0.501-1.219,1.12-2.375,1.855-3.474c0.729-1.096,1.561-2.109,2.494-3.04c0.93-0.934,1.948-1.765,3.041-2.498
		c1.099-0.732,2.254-1.346,3.472-1.854c1.216-0.504,2.471-0.885,3.764-1.143C174.792,15.942,176.095,15.813,177.412,15.813z"/>
	<path fill="#FFFFFF" d="M175.533,30.881h3.953v14.906h-3.953V30.881z M175.389,27.189c0-1.18,0.96-2.06,2.119-2.06
		c1.179,0,2.143,0.88,2.143,2.06c0,1.179-0.964,2.071-2.143,2.071C176.35,29.261,175.389,28.368,175.389,27.189z"/>
</g>
<g>
	<path fill="#203A70" d="M234.55,17.093h33.468c1.242,0,2.259,1.173,2.263,2.613v3.779h-37.996v-3.779
		C232.288,18.266,233.306,17.093,234.55,17.093z M270.281,26.237v25.775c-0.004,1.431-1.021,2.604-2.26,2.607H234.55
		c-1.245-0.004-2.262-1.177-2.265-2.607V26.237H270.281z M268.021,14.343H234.55c-2.634,0-4.777,2.404-4.78,5.363v32.307
		c0.003,2.952,2.146,5.359,4.78,5.359h33.471c2.628,0,4.774-2.407,4.777-5.359V19.706C272.795,16.747,270.649,14.343,268.021,14.343
		z"/>
	<rect x="231.708" y="16.819" fill="#203A70" width="39.14" height="38.539"/>
	<path fill="#FFFFFF" d="M242.778,32.925c1.33,0,2.411,1.091,2.411,2.432c0,1.345-1.081,2.442-2.411,2.442
		c-1.332,0-2.416-1.098-2.416-2.442C240.362,34.016,241.446,32.925,242.778,32.925z M242.778,30.382
		c-2.719,0-4.935,2.23-4.935,4.971c0.006,2.732,2.219,4.963,4.932,4.971h0.003c2.717,0,4.932-2.227,4.932-4.971
		C247.709,32.612,245.495,30.382,242.778,30.382z"/>
	<path fill="#FFFFFF" d="M247.497,47.674h-9.439c0.197-0.924,0.643-1.762,1.3-2.439c0.905-0.929,2.118-1.438,3.421-1.438
		c1.297,0,2.512,0.51,3.416,1.438C246.854,45.918,247.298,46.756,247.497,47.674z M248,43.464c-1.354-1.399-3.238-2.201-5.169-2.201
		h-0.106c-1.937,0-3.822,0.802-5.17,2.197c-1.386,1.426-2.148,3.37-2.148,5.481c0,0.696,0.566,1.263,1.26,1.263h12.223
		c0.693,0,1.255-0.566,1.255-1.263C250.144,46.83,249.381,44.886,248,43.464z"/>
	<path fill="#FFFFFF" d="M265.854,41.992h-11.145c-0.484,0-0.881,0.4-0.881,0.89c0,0.491,0.396,0.888,0.881,0.888h11.145
		c0.48,0,0.879-0.396,0.879-0.888C266.733,42.393,266.334,41.992,265.854,41.992z"/>
	<path fill="#FFFFFF" d="M265.854,41.992h-11.145c-0.484,0-0.881,0.4-0.881,0.89c0,0.491,0.396,0.888,0.881,0.888h11.145
		c0.48,0,0.879-0.396,0.879-0.888C266.733,42.393,266.334,41.992,265.854,41.992z"/>
	<path fill="#FFFFFF" d="M265.854,47.163h-11.145c-0.484,0-0.881,0.397-0.881,0.889c0,0.492,0.396,0.89,0.881,0.89h11.145
		c0.48,0,0.879-0.397,0.879-0.89C266.733,47.561,266.334,47.163,265.854,47.163z"/>
	<path fill="#FFFFFF" d="M265.854,47.163h-11.145c-0.484,0-0.881,0.397-0.881,0.889c0,0.492,0.396,0.89,0.881,0.89h11.145
		c0.48,0,0.879-0.397,0.879-0.89C266.733,47.561,266.334,47.163,265.854,47.163z"/>
	<path fill="#FFFFFF" d="M265.854,31.658h-11.145c-0.484,0-0.881,0.394-0.881,0.89c0,0.491,0.396,0.886,0.881,0.886h11.145
		c0.48,0,0.879-0.395,0.879-0.886C266.733,32.052,266.334,31.658,265.854,31.658z"/>
	<path fill="#FFFFFF" d="M265.854,31.658h-11.145c-0.484,0-0.881,0.394-0.881,0.89c0,0.491,0.396,0.886,0.881,0.886h11.145
		c0.48,0,0.879-0.395,0.879-0.886C266.733,32.052,266.334,31.658,265.854,31.658z"/>
	<path fill="#FFFFFF" d="M265.854,36.823h-11.145c-0.484,0-0.881,0.399-0.881,0.893c0,0.488,0.396,0.888,0.881,0.888h11.145
		c0.48,0,0.879-0.399,0.879-0.888C266.733,37.223,266.334,36.823,265.854,36.823z"/>
	<rect x="229.77" y="23.485" fill="#FFFFFF" width="43.028" height="2.752"/>
</g>
<g>
	<g>
		<path fill="#203A70" d="M339.525,41.727c-0.535,1.208-0.279,2.62,0.646,3.561l0.117,0.114c0.732,0.736,1.146,1.73,1.146,2.771
			c0,1.037-0.413,2.031-1.146,2.768c-0.736,0.731-1.732,1.146-2.769,1.146c-1.038,0-2.034-0.414-2.771-1.146l-0.113-0.118
			c-0.942-0.924-2.356-1.182-3.563-0.646c-1.183,0.504-1.951,1.666-1.954,2.954v0.333c0,2.157-1.753,3.908-3.914,3.908
			c-2.158,0-3.911-1.751-3.911-3.908v-0.181c-0.033-1.323-0.87-2.494-2.112-2.953c-1.207-0.528-2.614-0.275-3.56,0.642l-0.117,0.125
			c-0.732,0.732-1.729,1.146-2.768,1.146c-1.039,0-2.036-0.413-2.766-1.146c-0.734-0.736-1.148-1.727-1.148-2.771
			c0-1.038,0.414-2.031,1.148-2.764l0.115-0.117c0.922-0.945,1.18-2.354,0.645-3.561c-0.507-1.182-1.668-1.95-2.953-1.955h-0.332
			c-2.158,0-3.911-1.755-3.911-3.916c0-2.155,1.753-3.911,3.911-3.911h0.18c1.322-0.03,2.494-0.866,2.95-2.108
			c0.53-1.207,0.276-2.619-0.646-3.564l-0.117-0.115c-0.735-0.736-1.146-1.73-1.146-2.768c0-1.035,0.411-2.036,1.146-2.769
			c0.732-0.732,1.729-1.148,2.764-1.148c1.042,0,2.038,0.416,2.771,1.148l0.114,0.118c0.945,0.925,2.36,1.176,3.563,0.645h0.157
			c1.182-0.504,1.95-1.666,1.956-2.953v-0.33c0-2.162,1.753-3.914,3.911-3.914s3.914,1.752,3.914,3.914v0.174
			c0.003,1.284,0.774,2.446,1.954,2.954c1.206,0.53,2.617,0.278,3.56-0.648l0.12-0.114c0.732-0.731,1.729-1.149,2.765-1.149
			c1.041,0,2.034,0.418,2.767,1.149c0.736,0.734,1.146,1.729,1.146,2.771c0,1.038-0.41,2.028-1.146,2.765l-0.117,0.116
			c-0.921,0.945-1.176,2.353-0.645,3.56v0.16c0.51,1.179,1.669,1.947,2.953,1.956h0.333c2.161,0,3.911,1.747,3.911,3.911
			c0,2.158-1.75,3.911-3.911,3.911h-0.173C341.19,39.774,340.028,40.546,339.525,41.727z"/>
	</g>
	<g>
		<path fill="#203A70" d="M325.205,58.908c-3.004,0-5.448-2.442-5.448-5.444v-0.181c-0.016-0.66-0.452-1.268-1.108-1.511
			c-0.87-0.377-1.468-0.17-1.956,0.301l-0.074,0.082c-2.085,2.084-5.712,2.056-7.734,0.025c-1.029-1.03-1.598-2.398-1.598-3.855
			c0-1.456,0.569-2.824,1.603-3.854l0.097-0.102c0.487-0.5,0.621-1.232,0.342-1.863c-0.273-0.638-0.881-1.04-1.557-1.042h-0.324
			c-3.004,0-5.448-2.446-5.448-5.452c0-3.004,2.444-5.447,5.448-5.447h0.18c0.662-0.015,1.268-0.448,1.508-1.103
			c0.316-0.726,0.184-1.462-0.304-1.96l-0.103-0.104c-1.029-1.029-1.598-2.397-1.598-3.853c0-1.439,0.583-2.845,1.6-3.857
			c1.014-1.013,2.418-1.597,3.848-1.597c1.436,0,2.842,0.584,3.857,1.6l0.128,0.13c0.446,0.438,1.218,0.59,1.843,0.313
			c0.12-0.054,0.247-0.091,0.377-0.111c0.5-0.299,0.815-0.845,0.819-1.444v-0.322c0-3.006,2.444-5.45,5.447-5.45
			c3.006,0,5.45,2.444,5.45,5.45v0.174c0.003,0.669,0.404,1.274,1.025,1.541c0.66,0.294,1.391,0.146,1.875-0.331l0.139-0.132
			c0.988-0.989,2.393-1.573,3.823-1.573c1.454,0,2.822,0.568,3.854,1.599c1.029,1.031,1.597,2.4,1.597,3.858
			c0,1.454-0.567,2.821-1.597,3.851l-0.117,0.117c-0.472,0.484-0.605,1.218-0.325,1.854c0.053,0.12,0.09,0.245,0.111,0.375
			c0.304,0.502,0.85,0.819,1.447,0.823h0.321c3.004,0,5.448,2.444,5.448,5.448s-2.444,5.448-5.448,5.448h-0.173
			c-0.671,0.002-1.276,0.401-1.541,1.021c-0.289,0.654-0.157,1.387,0.328,1.883l0.093,0.09c1.046,1.048,1.611,2.418,1.611,3.871
			c0,1.451-0.565,2.819-1.595,3.853c-2.045,2.036-5.678,2.03-7.71,0.004l-0.132-0.134c-0.447-0.441-1.215-0.587-1.837-0.315
			c-0.64,0.274-1.04,0.88-1.041,1.553v0.331C330.656,56.466,328.21,58.908,325.205,58.908z M317.878,48.52
			c0.664,0,1.31,0.136,1.919,0.403c1.76,0.648,2.983,2.359,3.032,4.322v0.219c0,1.307,1.065,2.371,2.375,2.371
			c1.312,0,2.377-1.064,2.377-2.371v-0.333c0.005-1.908,1.138-3.622,2.888-4.367c1.694-0.755,3.868-0.382,5.242,0.963l0.139,0.14
			c0.857,0.855,2.459,0.875,3.353-0.016c0.446-0.447,0.694-1.045,0.694-1.678c0-0.635-0.248-1.234-0.699-1.686l-0.101-0.1
			c-1.397-1.423-1.771-3.487-0.979-5.284c0.742-1.731,2.455-2.864,4.356-2.869h0.178c1.309,0,2.374-1.065,2.374-2.374
			s-1.065-2.374-2.374-2.374h-0.333c-1.903-0.014-3.611-1.146-4.364-2.884c-0.063-0.145-0.102-0.299-0.118-0.455
			c-0.62-1.714-0.215-3.625,1.074-4.946l0.131-0.132c0.448-0.448,0.696-1.044,0.696-1.677c0-0.638-0.248-1.235-0.696-1.685
			c-0.895-0.891-2.461-0.896-3.359,0l-0.148,0.142c-1.336,1.317-3.474,1.716-5.237,0.94c-1.734-0.745-2.866-2.458-2.87-4.355v-0.178
			c0-1.311-1.066-2.377-2.378-2.377c-1.309,0-2.374,1.066-2.374,2.377v0.33c-0.009,1.911-1.144,3.62-2.891,4.367
			c-0.143,0.062-0.292,0.1-0.444,0.114c-1.688,0.615-3.659,0.19-4.952-1.075l-0.141-0.143c-0.857-0.859-2.456-0.879-3.347,0.014
			c-0.443,0.441-0.696,1.054-0.696,1.682c0,0.635,0.248,1.232,0.696,1.681l0.117,0.117c1.381,1.415,1.753,3.478,0.964,5.269
			c-0.642,1.759-2.353,2.982-4.322,3.026h-0.213c-1.31,0-2.375,1.065-2.375,2.374c0,1.311,1.065,2.378,2.375,2.378h0.332
			c1.906,0.009,3.616,1.142,4.366,2.888c0.784,1.771,0.411,3.834-0.958,5.239l-0.113,0.116c-0.466,0.463-0.714,1.059-0.714,1.691
			c0,0.635,0.249,1.233,0.699,1.684c0.884,0.886,2.474,0.886,3.359,0l0.09-0.097C315.446,49.001,316.627,48.52,317.878,48.52z"/>
	</g>
	<g>
		<circle fill="#203A70" cx="325.049" cy="35.86" r="5.868"/>
	</g>
	<g>
		<path fill="#FFFFFF" d="M325.048,43.263c-4.083,0-7.404-3.321-7.404-7.402c0-4.084,3.321-7.404,7.404-7.404
			s7.405,3.32,7.405,7.404C332.454,39.941,329.131,43.263,325.048,43.263z M325.048,31.529c-2.387,0-4.331,1.943-4.331,4.331
			c0,2.386,1.944,4.328,4.331,4.328c2.388,0,4.331-1.942,4.331-4.328C329.379,33.473,327.436,31.529,325.048,31.529z"/>
	</g>
</g>
<path fill="#FFFFFF" d="M117.755,47.493c0,0.787-0.639,1.423-1.423,1.423H97.327c-0.786,0-1.426-0.636-1.426-1.423
	c0-0.786,0.64-1.423,1.426-1.423h19.005C117.116,46.07,117.755,46.707,117.755,47.493z"/>
</svg>
