<?xml version="1.0" encoding="utf-8"?>
<!-- Generator: Adobe Illustrator 16.0.0, SVG Export Plug-In . SVG Version: 6.00 Build 0)  -->
<!DOCTYPE svg PUBLIC "-//W3C//DTD SVG 1.1//EN" "http://www.w3.org/Graphics/SVG/1.1/DTD/svg11.dtd">
<svg version="1.1" id="레이어_1" xmlns="http://www.w3.org/2000/svg" xmlns:xlink="http://www.w3.org/1999/xlink" x="0px"
	 y="0px" width="349.667px" height="124.25px" viewBox="0 0 349.667 124.25" enable-background="new 0 0 349.667 124.25"
	 xml:space="preserve">
<g>
	<g>
		<path fill="#EAEAEA" d="M25.124,11.993c-4.297,1.302-7.227,3.06-8.789,5.272c-1.172,1.824-1.758,4.492-1.758,8.009v6.835h10.547
			v17.969H7.351V26.054c0-3.125,0.128-5.598,0.391-7.422c0.519-2.344,1.367-4.297,2.539-5.858c1.041-2.082,2.604-3.711,4.688-4.884
			c2.473-1.432,5.859-2.604,10.156-3.516V11.993z M60.085,11.993c-4.297,1.302-7.227,3.06-8.789,5.272
			c-1.172,1.824-1.758,4.492-1.758,8.009v6.835h10.547v17.969H42.312V26.054c0-3.254,0.129-5.728,0.391-7.422
			c0.391-2.344,1.172-4.297,2.344-5.858c1.041-2.082,2.667-3.711,4.883-4.884c2.344-1.432,5.729-2.604,10.156-3.516V11.993z"/>
	</g>
	<g>
		<path fill="#EAEAEA" d="M289.581,112.258c4.297-1.303,7.227-3.061,8.789-5.273c1.172-1.824,1.758-4.492,1.758-8.008v-6.836
			h-10.547V74.172h17.773v24.023c0,3.254-0.127,5.729-0.391,7.422c-0.391,2.344-1.172,4.297-2.344,5.859
			c-1.041,2.082-2.666,3.711-4.883,4.883c-2.344,1.432-5.729,2.604-10.156,3.516V112.258z M324.542,112.258
			c4.297-1.303,7.227-3.061,8.789-5.273c1.172-1.824,1.758-4.492,1.758-8.008v-6.836h-10.547V74.172h17.773v24.023
			c0,3.125-0.127,5.598-0.391,7.422c-0.518,2.344-1.367,4.297-2.539,5.859c-1.041,2.082-2.604,3.711-4.688,4.883
			c-2.471,1.432-5.859,2.604-10.156,3.516V112.258z"/>
	</g>
</g>
</svg>
