<?xml version="1.0" standalone="no"?>
<!DOCTYPE svg PUBLIC "-//W3C//DTD SVG 20010904//EN"
 "http://www.w3.org/TR/2001/REC-SVG-20010904/DTD/svg10.dtd">
<svg version="1.0" xmlns="http://www.w3.org/2000/svg"
 width="1152.000000pt" height="1152.000000pt" viewBox="0 0 1152.000000 1152.000000"
 preserveAspectRatio="xMidYMid meet">
<metadata>
Created by potrace 1.11, written by Peter Selinger 2001-2013
</metadata>
<g transform="translate(0.000000,1152.000000) scale(0.100000,-0.100000)"
fill="#000000" stroke="none">
<path d="M5760 11474 c-6 -99 -18 -274 -26 -359 -3 -33 -7 -87 -9 -120 -3 -64
-12 -166 -21 -255 -3 -30 -7 -89 -9 -130 -3 -41 -7 -96 -10 -122 -4 -26 -8
-71 -10 -100 -6 -83 -14 -179 -21 -230 -3 -25 -7 -73 -9 -105 -5 -63 -12 -145
-20 -208 -2 -22 -7 -65 -10 -95 -11 -121 -33 -312 -40 -360 -2 -14 -7 -56 -11
-95 -3 -38 -8 -73 -10 -76 -2 -3 -6 -37 -9 -75 -3 -38 -8 -76 -11 -85 -2 -8
-6 -37 -9 -65 -2 -27 -7 -60 -10 -74 -5 -24 -10 -56 -20 -127 -11 -78 -16
-109 -21 -123 -2 -8 -6 -38 -10 -65 -3 -28 -9 -68 -14 -90 -5 -22 -12 -56 -15
-75 -3 -19 -8 -48 -11 -64 -10 -62 -73 -343 -94 -421 -6 -22 -13 -51 -16 -65
-2 -14 -10 -41 -16 -60 -7 -19 -13 -38 -14 -42 -1 -5 -2 -9 -4 -10 -1 -2 -3
-10 -5 -18 -2 -8 -16 -53 -31 -100 -15 -47 -28 -89 -30 -95 -3 -14 -75 -198
-82 -210 -4 -5 -7 -14 -8 -20 -3 -18 -99 -210 -106 -213 -5 -2 -8 -8 -8 -14 0
-16 -111 -198 -121 -198 -5 0 -9 -5 -9 -11 0 -9 -35 -61 -65 -96 -5 -6 -26
-31 -45 -55 -43 -53 -197 -206 -240 -239 -18 -13 -49 -39 -68 -56 -20 -18 -42
-33 -48 -33 -7 0 -14 -4 -16 -9 -4 -11 -223 -151 -237 -151 -5 0 -11 -3 -13
-8 -3 -7 -129 -71 -248 -124 -92 -42 -289 -119 -400 -157 -52 -18 -102 -36
-110 -39 -8 -3 -17 -6 -20 -7 -14 -3 -162 -50 -210 -65 -49 -16 -157 -48 -185
-55 -5 -1 -17 -4 -25 -8 -8 -3 -36 -11 -62 -17 -56 -15 -61 -26 -15 -35 17 -4
50 -13 72 -20 22 -7 83 -25 135 -40 99 -28 420 -130 455 -144 11 -5 31 -13 45
-19 14 -5 73 -29 132 -51 144 -55 199 -80 353 -158 131 -66 257 -141 263 -155
2 -4 8 -8 14 -8 10 0 76 -46 93 -65 6 -6 17 -16 26 -21 93 -53 312 -280 410
-424 24 -36 47 -66 52 -68 4 -2 7 -10 7 -18 0 -8 5 -14 10 -14 6 0 10 -5 10
-11 0 -6 9 -23 19 -38 28 -38 143 -272 179 -361 37 -91 73 -190 77 -210 2 -8
10 -33 18 -55 8 -22 19 -53 23 -70 10 -41 11 -45 14 -47 1 -2 3 -10 5 -18 3
-8 25 -94 50 -190 25 -96 48 -190 50 -208 2 -18 6 -36 9 -40 3 -5 8 -31 12
-58 3 -27 8 -52 10 -56 3 -4 7 -22 9 -40 3 -18 7 -43 10 -56 10 -43 13 -58 19
-105 4 -27 9 -59 12 -70 10 -53 16 -89 34 -212 7 -44 14 -87 15 -96 2 -9 6
-40 10 -70 3 -30 8 -65 10 -79 4 -29 22 -167 30 -225 2 -22 6 -56 9 -75 2 -19
7 -66 11 -105 4 -38 9 -83 12 -100 2 -16 7 -55 9 -85 3 -30 7 -68 8 -85 2 -16
6 -64 10 -105 4 -41 9 -91 12 -110 2 -20 6 -60 9 -90 6 -71 14 -153 20 -220 3
-30 8 -82 10 -115 2 -33 5 -60 5 -60 2 0 5 -39 14 -175 4 -52 9 -106 11 -120
2 -14 7 -65 10 -113 3 -49 7 -112 10 -140 15 -177 24 -306 30 -405 2 -48 14
-85 16 -51 0 8 2 34 3 59 3 42 15 202 21 280 10 118 19 240 19 272 1 21 3 38
6 38 3 0 6 26 7 58 1 31 4 80 6 107 3 28 8 88 11 135 4 47 9 105 12 130 3 25
7 72 10 105 2 33 6 80 9 105 2 25 7 77 10 116 3 39 8 82 10 95 3 13 7 58 10
99 4 41 8 89 10 105 8 61 14 122 20 180 9 109 16 170 20 185 3 8 7 40 10 70 6
67 26 220 40 310 3 19 7 53 10 75 2 22 6 49 8 60 3 11 8 42 11 68 4 27 9 56
11 65 1 10 6 37 9 62 3 25 8 56 11 70 3 14 8 41 11 60 6 39 61 318 80 402 3
15 5 30 5 33 0 2 11 43 24 90 13 47 21 85 18 85 -3 0 0 7 7 15 7 9 10 18 7 22
-4 3 -2 14 4 25 6 11 13 32 15 46 6 30 41 147 54 177 5 11 20 56 35 100 43
129 165 408 185 425 4 3 10 14 14 25 9 24 116 195 133 213 7 8 18 23 24 35 14
25 13 24 86 107 128 146 260 264 398 356 144 97 241 152 393 224 80 39 344
149 367 154 8 2 58 19 125 44 8 3 17 6 20 7 3 1 85 27 182 59 98 31 186 58
198 59 11 1 20 5 20 9 0 4 7 8 15 8 8 0 54 12 102 26 49 14 94 26 101 27 31 1
6 15 -48 27 -33 7 -63 17 -66 21 -3 5 -15 9 -27 9 -12 0 -42 7 -67 16 -25 9
-56 18 -69 20 -14 3 -29 8 -35 12 -6 3 -19 8 -29 9 -9 2 -45 12 -80 24 -34 12
-66 22 -72 24 -5 1 -17 5 -25 8 -8 3 -55 19 -105 36 -181 60 -394 146 -534
214 -85 41 -291 155 -301 166 -3 3 -39 29 -80 56 -41 28 -82 57 -91 65 -9 8
-36 31 -60 50 -130 102 -308 310 -416 483 -62 101 -139 248 -135 260 1 4 -3 7
-8 7 -6 0 -10 7 -10 15 0 8 -4 23 -10 33 -15 28 -48 105 -70 168 -12 33 -25
68 -30 79 -5 11 -18 52 -30 90 -12 39 -24 77 -26 85 -3 8 -5 15 -5 15 0 0 -8
29 -19 65 -11 36 -25 85 -31 110 -6 25 -12 52 -14 60 -23 88 -37 149 -41 170
-3 14 -9 41 -14 60 -5 19 -12 51 -15 70 -3 19 -10 53 -15 75 -8 37 -46 250
-57 320 -2 17 -11 68 -18 115 -8 47 -17 108 -20 135 -3 28 -7 61 -10 75 -5 24
-8 46 -20 138 -3 23 -7 59 -10 80 -2 20 -7 57 -9 82 -3 25 -7 60 -11 78 -3 17
-7 56 -10 85 -2 28 -6 72 -9 97 -3 25 -8 65 -11 90 -2 25 -7 68 -10 95 -3 28
-8 73 -10 100 -3 28 -7 66 -9 85 -3 19 -7 69 -10 110 -6 73 -10 123 -21 225
-6 63 -19 220 -30 360 -3 39 -8 95 -11 125 -3 30 -7 84 -10 120 -3 36 -7 92
-9 125 -3 33 -7 85 -10 115 -5 60 -13 174 -21 289 -2 41 -7 77 -9 80 -3 2 -5
0 -5 -5z"/>
</g>
</svg>
